<mxfile host="app.diagrams.net" agent="Mozilla/5.0 (Macintosh; Intel Mac OS X 10_15_7) AppleWebKit/537.36 (KHTML, like Gecko) Chrome/130.0.0.0 Safari/537.36" version="24.8.3" pages="2">
  <diagram name="Page-1" id="EbqlNKMAnF1RujcR3Bz3">
    <mxGraphModel dx="1452" dy="540" grid="0" gridSize="10" guides="1" tooltips="1" connect="1" arrows="1" fold="1" page="1" pageScale="1" pageWidth="1700" pageHeight="1100" background="none" math="0" shadow="0">
      <root>
        <mxCell id="0" />
        <mxCell id="1" parent="0" />
        <mxCell id="M4TTNsvl_Fm2QFo9NiDF-46" style="edgeStyle=orthogonalEdgeStyle;rounded=0;orthogonalLoop=1;jettySize=auto;html=1;entryX=1;entryY=0.5;entryDx=0;entryDy=0;" edge="1" parent="1" source="M4TTNsvl_Fm2QFo9NiDF-1" target="M4TTNsvl_Fm2QFo9NiDF-27">
          <mxGeometry relative="1" as="geometry">
            <Array as="points">
              <mxPoint x="280" y="255" />
              <mxPoint x="280" y="173" />
            </Array>
          </mxGeometry>
        </mxCell>
        <mxCell id="M4TTNsvl_Fm2QFo9NiDF-47" style="edgeStyle=orthogonalEdgeStyle;rounded=0;orthogonalLoop=1;jettySize=auto;html=1;exitX=1;exitY=0.5;exitDx=0;exitDy=0;entryX=1;entryY=0.5;entryDx=0;entryDy=0;" edge="1" parent="1" source="M4TTNsvl_Fm2QFo9NiDF-1" target="M4TTNsvl_Fm2QFo9NiDF-28">
          <mxGeometry relative="1" as="geometry">
            <Array as="points">
              <mxPoint x="280" y="255" />
              <mxPoint x="280" y="223" />
            </Array>
          </mxGeometry>
        </mxCell>
        <mxCell id="M4TTNsvl_Fm2QFo9NiDF-48" style="edgeStyle=orthogonalEdgeStyle;rounded=0;orthogonalLoop=1;jettySize=auto;html=1;exitX=1;exitY=0.5;exitDx=0;exitDy=0;entryX=1;entryY=0.5;entryDx=0;entryDy=0;" edge="1" parent="1" source="M4TTNsvl_Fm2QFo9NiDF-1" target="M4TTNsvl_Fm2QFo9NiDF-29">
          <mxGeometry relative="1" as="geometry">
            <Array as="points">
              <mxPoint x="280" y="255" />
              <mxPoint x="280" y="276" />
            </Array>
          </mxGeometry>
        </mxCell>
        <mxCell id="M4TTNsvl_Fm2QFo9NiDF-1" value="Local Proxy" style="swimlane;horizontal=0;whiteSpace=wrap;html=1;direction=west;fillColor=#ffcd28;gradientColor=#ffa500;strokeColor=#d79b00;" vertex="1" parent="1">
          <mxGeometry x="330" y="190" width="200" height="130" as="geometry" />
        </mxCell>
        <mxCell id="M4TTNsvl_Fm2QFo9NiDF-2" value="CNDP Cluster 1 &lt;br&gt;control node" style="text;html=1;align=center;verticalAlign=middle;resizable=0;points=[];autosize=1;strokeColor=none;fillColor=none;" vertex="1" parent="M4TTNsvl_Fm2QFo9NiDF-1">
          <mxGeometry x="35" y="85" width="110" height="40" as="geometry" />
        </mxCell>
        <mxCell id="M4TTNsvl_Fm2QFo9NiDF-4" value="Ops Command&lt;br&gt;Agent" style="whiteSpace=wrap;html=1;fillColor=#fff2cc;gradientColor=#ffd966;strokeColor=#d6b656;" vertex="1" parent="M4TTNsvl_Fm2QFo9NiDF-1">
          <mxGeometry x="30" y="20" width="120" height="60" as="geometry" />
        </mxCell>
        <mxCell id="M4TTNsvl_Fm2QFo9NiDF-49" style="edgeStyle=orthogonalEdgeStyle;rounded=0;orthogonalLoop=1;jettySize=auto;html=1;entryX=1;entryY=0.5;entryDx=0;entryDy=0;" edge="1" parent="1" source="M4TTNsvl_Fm2QFo9NiDF-8" target="M4TTNsvl_Fm2QFo9NiDF-33">
          <mxGeometry relative="1" as="geometry">
            <Array as="points">
              <mxPoint x="280" y="425" />
              <mxPoint x="280" y="365" />
            </Array>
          </mxGeometry>
        </mxCell>
        <mxCell id="M4TTNsvl_Fm2QFo9NiDF-50" style="edgeStyle=orthogonalEdgeStyle;rounded=0;orthogonalLoop=1;jettySize=auto;html=1;exitX=1;exitY=0.5;exitDx=0;exitDy=0;entryX=1;entryY=0.5;entryDx=0;entryDy=0;" edge="1" parent="1" source="M4TTNsvl_Fm2QFo9NiDF-8" target="M4TTNsvl_Fm2QFo9NiDF-34">
          <mxGeometry relative="1" as="geometry">
            <Array as="points">
              <mxPoint x="280" y="425" />
              <mxPoint x="280" y="415" />
            </Array>
          </mxGeometry>
        </mxCell>
        <mxCell id="M4TTNsvl_Fm2QFo9NiDF-51" style="edgeStyle=orthogonalEdgeStyle;rounded=0;orthogonalLoop=1;jettySize=auto;html=1;exitX=1;exitY=0.5;exitDx=0;exitDy=0;entryX=1;entryY=0.5;entryDx=0;entryDy=0;" edge="1" parent="1" source="M4TTNsvl_Fm2QFo9NiDF-8" target="M4TTNsvl_Fm2QFo9NiDF-35">
          <mxGeometry relative="1" as="geometry">
            <Array as="points">
              <mxPoint x="280" y="425" />
              <mxPoint x="280" y="468" />
            </Array>
          </mxGeometry>
        </mxCell>
        <mxCell id="M4TTNsvl_Fm2QFo9NiDF-8" value="Local Proxy" style="swimlane;horizontal=0;whiteSpace=wrap;html=1;direction=west;fillColor=#ffcd28;strokeColor=#d79b00;gradientColor=#ffa500;" vertex="1" parent="1">
          <mxGeometry x="330" y="360" width="200" height="130" as="geometry" />
        </mxCell>
        <mxCell id="M4TTNsvl_Fm2QFo9NiDF-9" value="CNDP Cluster 2&lt;br&gt;control node" style="text;html=1;align=center;verticalAlign=middle;resizable=0;points=[];autosize=1;strokeColor=none;fillColor=none;" vertex="1" parent="M4TTNsvl_Fm2QFo9NiDF-8">
          <mxGeometry x="35" y="85" width="110" height="40" as="geometry" />
        </mxCell>
        <mxCell id="M4TTNsvl_Fm2QFo9NiDF-10" value="Ops Command&lt;br&gt;Agent" style="whiteSpace=wrap;html=1;fillColor=#fff2cc;gradientColor=#ffd966;strokeColor=#d6b656;" vertex="1" parent="M4TTNsvl_Fm2QFo9NiDF-8">
          <mxGeometry x="30" y="20" width="120" height="60" as="geometry" />
        </mxCell>
        <mxCell id="M4TTNsvl_Fm2QFo9NiDF-52" style="edgeStyle=orthogonalEdgeStyle;rounded=0;orthogonalLoop=1;jettySize=auto;html=1;entryX=1;entryY=0.5;entryDx=0;entryDy=0;" edge="1" parent="1" source="M4TTNsvl_Fm2QFo9NiDF-11" target="M4TTNsvl_Fm2QFo9NiDF-41">
          <mxGeometry relative="1" as="geometry">
            <Array as="points">
              <mxPoint x="280" y="595" />
              <mxPoint x="280" y="555" />
            </Array>
          </mxGeometry>
        </mxCell>
        <mxCell id="M4TTNsvl_Fm2QFo9NiDF-53" style="edgeStyle=orthogonalEdgeStyle;rounded=0;orthogonalLoop=1;jettySize=auto;html=1;entryX=1;entryY=0.5;entryDx=0;entryDy=0;" edge="1" parent="1" source="M4TTNsvl_Fm2QFo9NiDF-11" target="M4TTNsvl_Fm2QFo9NiDF-42">
          <mxGeometry relative="1" as="geometry">
            <Array as="points">
              <mxPoint x="280" y="595" />
              <mxPoint x="280" y="605" />
            </Array>
          </mxGeometry>
        </mxCell>
        <mxCell id="M4TTNsvl_Fm2QFo9NiDF-54" style="edgeStyle=orthogonalEdgeStyle;rounded=0;orthogonalLoop=1;jettySize=auto;html=1;entryX=1;entryY=0.5;entryDx=0;entryDy=0;" edge="1" parent="1" source="M4TTNsvl_Fm2QFo9NiDF-11" target="M4TTNsvl_Fm2QFo9NiDF-43">
          <mxGeometry relative="1" as="geometry">
            <Array as="points">
              <mxPoint x="280" y="595" />
              <mxPoint x="280" y="658" />
            </Array>
          </mxGeometry>
        </mxCell>
        <mxCell id="M4TTNsvl_Fm2QFo9NiDF-11" value="Local Proxy" style="swimlane;horizontal=0;whiteSpace=wrap;html=1;direction=west;fillColor=#ffcd28;gradientColor=#ffa500;strokeColor=#d79b00;" vertex="1" parent="1">
          <mxGeometry x="330" y="530" width="200" height="130" as="geometry" />
        </mxCell>
        <mxCell id="M4TTNsvl_Fm2QFo9NiDF-12" value="CNDP Cluster nth&lt;br&gt;control node" style="text;html=1;align=center;verticalAlign=middle;resizable=0;points=[];autosize=1;strokeColor=none;fillColor=none;" vertex="1" parent="M4TTNsvl_Fm2QFo9NiDF-11">
          <mxGeometry x="30" y="85" width="120" height="40" as="geometry" />
        </mxCell>
        <mxCell id="M4TTNsvl_Fm2QFo9NiDF-13" value="Ops Command&lt;br&gt;Agent" style="whiteSpace=wrap;html=1;fillColor=#fff2cc;gradientColor=#ffd966;strokeColor=#d6b656;" vertex="1" parent="M4TTNsvl_Fm2QFo9NiDF-11">
          <mxGeometry x="30" y="20" width="120" height="60" as="geometry" />
        </mxCell>
        <mxCell id="M4TTNsvl_Fm2QFo9NiDF-16" value="" style="shape=process;whiteSpace=wrap;html=1;backgroundOutline=1;size=0.046875;fillColor=#ffe6cc;strokeColor=#d79b00;" vertex="1" parent="1">
          <mxGeometry x="600" y="180" width="660" height="500" as="geometry" />
        </mxCell>
        <mxCell id="M4TTNsvl_Fm2QFo9NiDF-18" value="Command Proxy" style="rounded=0;whiteSpace=wrap;html=1;fillColor=#f5f5f5;gradientColor=#b3b3b3;strokeColor=#666666;" vertex="1" parent="1">
          <mxGeometry x="690" y="400" width="110" height="60" as="geometry" />
        </mxCell>
        <mxCell id="M4TTNsvl_Fm2QFo9NiDF-20" value="&lt;b&gt;REDIS&lt;/b&gt;" style="rounded=1;whiteSpace=wrap;html=1;fillColor=#f8cecc;strokeColor=#b85450;" vertex="1" parent="1">
          <mxGeometry x="870" y="305" width="120" height="250" as="geometry" />
        </mxCell>
        <mxCell id="M4TTNsvl_Fm2QFo9NiDF-21" value="" style="outlineConnect=0;dashed=0;verticalLabelPosition=bottom;verticalAlign=top;align=center;html=1;shape=mxgraph.aws3.queue;fillColor=#D9A741;gradientColor=none;" vertex="1" parent="1">
          <mxGeometry x="891.62" y="350" width="76.75" height="30" as="geometry" />
        </mxCell>
        <mxCell id="M4TTNsvl_Fm2QFo9NiDF-63" style="edgeStyle=orthogonalEdgeStyle;rounded=0;orthogonalLoop=1;jettySize=auto;html=1;entryX=0;entryY=0.75;entryDx=0;entryDy=0;" edge="1" parent="1" source="M4TTNsvl_Fm2QFo9NiDF-22" target="M4TTNsvl_Fm2QFo9NiDF-23">
          <mxGeometry relative="1" as="geometry" />
        </mxCell>
        <mxCell id="M4TTNsvl_Fm2QFo9NiDF-22" value="" style="outlineConnect=0;dashed=0;verticalLabelPosition=bottom;verticalAlign=top;align=center;html=1;shape=mxgraph.aws3.queue;fillColor=#D9A741;gradientColor=none;" vertex="1" parent="1">
          <mxGeometry x="891.64" y="485" width="76.75" height="30" as="geometry" />
        </mxCell>
        <mxCell id="M4TTNsvl_Fm2QFo9NiDF-74" style="edgeStyle=orthogonalEdgeStyle;rounded=0;orthogonalLoop=1;jettySize=auto;html=1;" edge="1" parent="1" source="M4TTNsvl_Fm2QFo9NiDF-23" target="M4TTNsvl_Fm2QFo9NiDF-24">
          <mxGeometry relative="1" as="geometry" />
        </mxCell>
        <mxCell id="M4TTNsvl_Fm2QFo9NiDF-23" value="Command Server" style="rounded=0;whiteSpace=wrap;html=1;fillColor=#f5f5f5;strokeColor=#666666;gradientColor=#b3b3b3;" vertex="1" parent="1">
          <mxGeometry x="1070" y="400" width="120" height="60" as="geometry" />
        </mxCell>
        <mxCell id="M4TTNsvl_Fm2QFo9NiDF-24" value="Config DB" style="shape=cylinder3;whiteSpace=wrap;html=1;boundedLbl=1;backgroundOutline=1;size=15;fillColor=#b1ddf0;strokeColor=#10739e;" vertex="1" parent="1">
          <mxGeometry x="1075" y="235" width="110" height="70" as="geometry" />
        </mxCell>
        <mxCell id="M4TTNsvl_Fm2QFo9NiDF-72" style="edgeStyle=orthogonalEdgeStyle;rounded=0;orthogonalLoop=1;jettySize=auto;html=1;" edge="1" parent="1" source="M4TTNsvl_Fm2QFo9NiDF-25" target="M4TTNsvl_Fm2QFo9NiDF-23">
          <mxGeometry relative="1" as="geometry" />
        </mxCell>
        <mxCell id="M4TTNsvl_Fm2QFo9NiDF-25" value="" style="shadow=1;strokeWidth=1;rounded=1;absoluteArcSize=1;arcSize=2;" vertex="1" parent="1">
          <mxGeometry x="1050" y="580" width="160" height="60" as="geometry" />
        </mxCell>
        <mxCell id="M4TTNsvl_Fm2QFo9NiDF-26" value="Grafana Ops&lt;br&gt;Command&lt;br&gt;Plugin" style="editableCssRules=.*;html=1;fontColor=#999999;shape=image;verticalLabelPosition=middle;verticalAlign=middle;labelPosition=right;align=left;spacingLeft=20;part=1;points=[];imageAspect=0;image=data:image/svg+xml,PHN2ZyB4bWxucz0iaHR0cDovL3d3dy53My5vcmcvMjAwMC9zdmciIHhtbG5zOnY9Imh0dHBzOi8vdmVjdGEuaW8vbmFubyIgd2lkdGg9IjQyNCIgaGVpZ2h0PSI0MjQiIHZpZXdCb3g9IjAgMCA0MjQgNDI0Ij4mI3hhOwk8c3R5bGUgdHlwZT0idGV4dC9jc3MiPiYjeGE7CS5zdDB7ZmlsbDojNDI4NWY0O30mI3hhOwk8L3N0eWxlPiYjeGE7CTxwYXRoIGNsYXNzPSJzdDAiIGQ9Ik00MjQgMHY0MjRIMFYwek0yMTIgOTcuODQ2Yy0zNy44ODQgMC03MC4xNjQgMjMuOTktODIuNDc4IDU3LjYwOGgwbC0zLjQwMy4wMDFjLTQyLjYzNCAwLTc3LjE5NiAzNC41NjItNzcuMTk2IDc3LjE5NnMzNC41NjIgNzcuMTk2IDc3LjE5NiA3Ny4xOTZoMCAxNzEuNzYzYzQyLjYzNCAwIDc3LjE5Ni0zNC41NjIgNzcuMTk2LTc3LjE5NnMtMzQuNTYyLTc3LjE5Ni03Ny4xOTYtNzcuMTk2aDBsLTMuNDAzLS4wMDFDMjgyLjE2NCAxMjEuODM3IDI0OS44ODQgOTcuODQ2IDIxMiA5Ny44NDZ6IiBmaWxsLXJ1bGU9ImV2ZW5vZGQiLz4mI3hhOzwvc3ZnPg==;" vertex="1" parent="M4TTNsvl_Fm2QFo9NiDF-25">
          <mxGeometry width="30" height="30" relative="1" as="geometry">
            <mxPoint x="15" y="15" as="offset" />
          </mxGeometry>
        </mxCell>
        <mxCell id="M4TTNsvl_Fm2QFo9NiDF-27" value="SMF" style="rounded=0;whiteSpace=wrap;html=1;fillColor=#dae8fc;gradientColor=#7ea6e0;strokeColor=#6c8ebf;" vertex="1" parent="1">
          <mxGeometry x="150" y="158" width="70" height="30" as="geometry" />
        </mxCell>
        <mxCell id="M4TTNsvl_Fm2QFo9NiDF-28" value="CEE" style="rounded=0;whiteSpace=wrap;html=1;fillColor=#dae8fc;gradientColor=#7ea6e0;strokeColor=#6c8ebf;" vertex="1" parent="1">
          <mxGeometry x="150" y="208" width="70" height="30" as="geometry" />
        </mxCell>
        <mxCell id="M4TTNsvl_Fm2QFo9NiDF-29" value="AMF" style="rounded=0;whiteSpace=wrap;html=1;fillColor=#dae8fc;gradientColor=#7ea6e0;strokeColor=#6c8ebf;" vertex="1" parent="1">
          <mxGeometry x="150" y="258" width="70" height="35" as="geometry" />
        </mxCell>
        <mxCell id="M4TTNsvl_Fm2QFo9NiDF-32" value=". . ." style="text;strokeColor=none;fillColor=none;html=1;fontSize=24;fontStyle=1;verticalAlign=middle;align=center;" vertex="1" parent="1">
          <mxGeometry x="135" y="298" width="100" height="20" as="geometry" />
        </mxCell>
        <mxCell id="M4TTNsvl_Fm2QFo9NiDF-33" value="SMF" style="rounded=0;whiteSpace=wrap;html=1;fillColor=#dae8fc;gradientColor=#7ea6e0;strokeColor=#6c8ebf;" vertex="1" parent="1">
          <mxGeometry x="150" y="350" width="70" height="30" as="geometry" />
        </mxCell>
        <mxCell id="M4TTNsvl_Fm2QFo9NiDF-34" value="CEE" style="rounded=0;whiteSpace=wrap;html=1;fillColor=#dae8fc;gradientColor=#7ea6e0;strokeColor=#6c8ebf;" vertex="1" parent="1">
          <mxGeometry x="150" y="400" width="70" height="30" as="geometry" />
        </mxCell>
        <mxCell id="M4TTNsvl_Fm2QFo9NiDF-35" value="AMF" style="rounded=0;whiteSpace=wrap;html=1;fillColor=#dae8fc;gradientColor=#7ea6e0;strokeColor=#6c8ebf;" vertex="1" parent="1">
          <mxGeometry x="150" y="450" width="70" height="35" as="geometry" />
        </mxCell>
        <mxCell id="M4TTNsvl_Fm2QFo9NiDF-36" value=". . ." style="text;strokeColor=none;fillColor=none;html=1;fontSize=24;fontStyle=1;verticalAlign=middle;align=center;" vertex="1" parent="1">
          <mxGeometry x="135" y="490" width="100" height="20" as="geometry" />
        </mxCell>
        <mxCell id="M4TTNsvl_Fm2QFo9NiDF-41" value="SMF" style="rounded=0;whiteSpace=wrap;html=1;fillColor=#dae8fc;gradientColor=#7ea6e0;strokeColor=#6c8ebf;" vertex="1" parent="1">
          <mxGeometry x="150" y="540" width="70" height="30" as="geometry" />
        </mxCell>
        <mxCell id="M4TTNsvl_Fm2QFo9NiDF-42" value="CEE" style="rounded=0;whiteSpace=wrap;html=1;fillColor=#dae8fc;gradientColor=#7ea6e0;strokeColor=#6c8ebf;" vertex="1" parent="1">
          <mxGeometry x="150" y="590" width="70" height="30" as="geometry" />
        </mxCell>
        <mxCell id="M4TTNsvl_Fm2QFo9NiDF-43" value="AMF" style="rounded=0;whiteSpace=wrap;html=1;fillColor=#dae8fc;gradientColor=#7ea6e0;strokeColor=#6c8ebf;" vertex="1" parent="1">
          <mxGeometry x="150" y="640" width="70" height="35" as="geometry" />
        </mxCell>
        <mxCell id="M4TTNsvl_Fm2QFo9NiDF-44" value=". . ." style="text;strokeColor=none;fillColor=none;html=1;fontSize=24;fontStyle=1;verticalAlign=middle;align=center;" vertex="1" parent="1">
          <mxGeometry x="135" y="680" width="100" height="20" as="geometry" />
        </mxCell>
        <mxCell id="M4TTNsvl_Fm2QFo9NiDF-55" style="edgeStyle=orthogonalEdgeStyle;rounded=0;orthogonalLoop=1;jettySize=auto;html=1;exitX=0;exitY=0.5;exitDx=0;exitDy=0;entryX=0;entryY=0.5;entryDx=0;entryDy=0;" edge="1" parent="1" source="M4TTNsvl_Fm2QFo9NiDF-1" target="M4TTNsvl_Fm2QFo9NiDF-18">
          <mxGeometry relative="1" as="geometry">
            <Array as="points">
              <mxPoint x="660" y="255" />
              <mxPoint x="660" y="430" />
            </Array>
          </mxGeometry>
        </mxCell>
        <mxCell id="M4TTNsvl_Fm2QFo9NiDF-56" style="edgeStyle=orthogonalEdgeStyle;rounded=0;orthogonalLoop=1;jettySize=auto;html=1;exitX=0;exitY=0.5;exitDx=0;exitDy=0;entryX=0;entryY=0.5;entryDx=0;entryDy=0;" edge="1" parent="1" source="M4TTNsvl_Fm2QFo9NiDF-8" target="M4TTNsvl_Fm2QFo9NiDF-18">
          <mxGeometry relative="1" as="geometry">
            <Array as="points">
              <mxPoint x="530" y="430" />
            </Array>
          </mxGeometry>
        </mxCell>
        <mxCell id="M4TTNsvl_Fm2QFo9NiDF-57" style="edgeStyle=orthogonalEdgeStyle;rounded=0;orthogonalLoop=1;jettySize=auto;html=1;exitX=0;exitY=0.5;exitDx=0;exitDy=0;entryX=0;entryY=0.5;entryDx=0;entryDy=0;" edge="1" parent="1" source="M4TTNsvl_Fm2QFo9NiDF-61" target="M4TTNsvl_Fm2QFo9NiDF-18">
          <mxGeometry relative="1" as="geometry">
            <Array as="points">
              <mxPoint x="660" y="595" />
              <mxPoint x="660" y="430" />
            </Array>
          </mxGeometry>
        </mxCell>
        <mxCell id="M4TTNsvl_Fm2QFo9NiDF-59" value="REST&lt;br&gt;Protobuf" style="text;html=1;align=center;verticalAlign=middle;whiteSpace=wrap;rounded=0;rotation=270;" vertex="1" parent="1">
          <mxGeometry x="630" y="320" width="60" height="30" as="geometry" />
        </mxCell>
        <mxCell id="M4TTNsvl_Fm2QFo9NiDF-62" value="" style="edgeStyle=orthogonalEdgeStyle;rounded=0;orthogonalLoop=1;jettySize=auto;html=1;exitX=0;exitY=0.5;exitDx=0;exitDy=0;entryX=0;entryY=0.5;entryDx=0;entryDy=0;" edge="1" parent="1" source="M4TTNsvl_Fm2QFo9NiDF-11" target="M4TTNsvl_Fm2QFo9NiDF-61">
          <mxGeometry relative="1" as="geometry">
            <mxPoint x="530" y="595" as="sourcePoint" />
            <mxPoint x="690" y="430" as="targetPoint" />
            <Array as="points" />
          </mxGeometry>
        </mxCell>
        <mxCell id="M4TTNsvl_Fm2QFo9NiDF-61" value="REST&lt;br&gt;Protobuf" style="text;html=1;align=center;verticalAlign=middle;whiteSpace=wrap;rounded=0;rotation=270;" vertex="1" parent="1">
          <mxGeometry x="630" y="510" width="60" height="30" as="geometry" />
        </mxCell>
        <mxCell id="M4TTNsvl_Fm2QFo9NiDF-64" style="edgeStyle=orthogonalEdgeStyle;rounded=0;orthogonalLoop=1;jettySize=auto;html=1;exitX=0;exitY=0.25;exitDx=0;exitDy=0;entryX=1;entryY=0.5;entryDx=0;entryDy=0;entryPerimeter=0;" edge="1" parent="1" source="M4TTNsvl_Fm2QFo9NiDF-23" target="M4TTNsvl_Fm2QFo9NiDF-21">
          <mxGeometry relative="1" as="geometry" />
        </mxCell>
        <mxCell id="M4TTNsvl_Fm2QFo9NiDF-65" value="RPUSH&lt;br&gt;Protobuf" style="text;html=1;align=center;verticalAlign=middle;whiteSpace=wrap;rounded=0;rotation=270;" vertex="1" parent="1">
          <mxGeometry x="1010" y="360" width="60" height="30" as="geometry" />
        </mxCell>
        <mxCell id="M4TTNsvl_Fm2QFo9NiDF-68" value="BLPOP&lt;br&gt;Protobuf" style="text;html=1;align=center;verticalAlign=middle;whiteSpace=wrap;rounded=0;rotation=270;" vertex="1" parent="1">
          <mxGeometry x="1010" y="470" width="60" height="30" as="geometry" />
        </mxCell>
        <mxCell id="M4TTNsvl_Fm2QFo9NiDF-69" style="edgeStyle=orthogonalEdgeStyle;rounded=0;orthogonalLoop=1;jettySize=auto;html=1;exitX=1;exitY=0.5;exitDx=0;exitDy=0;entryX=0;entryY=0.5;entryDx=0;entryDy=0;entryPerimeter=0;" edge="1" parent="1" source="M4TTNsvl_Fm2QFo9NiDF-18" target="M4TTNsvl_Fm2QFo9NiDF-21">
          <mxGeometry relative="1" as="geometry" />
        </mxCell>
        <mxCell id="M4TTNsvl_Fm2QFo9NiDF-70" style="edgeStyle=orthogonalEdgeStyle;rounded=0;orthogonalLoop=1;jettySize=auto;html=1;entryX=0;entryY=0.5;entryDx=0;entryDy=0;entryPerimeter=0;" edge="1" parent="1" source="M4TTNsvl_Fm2QFo9NiDF-18" target="M4TTNsvl_Fm2QFo9NiDF-22">
          <mxGeometry relative="1" as="geometry" />
        </mxCell>
        <mxCell id="M4TTNsvl_Fm2QFo9NiDF-71" value="CNDP Cloud" style="text;html=1;align=center;verticalAlign=middle;whiteSpace=wrap;rounded=0;" vertex="1" parent="1">
          <mxGeometry x="880" y="642.5" width="100.01" height="30" as="geometry" />
        </mxCell>
        <mxCell id="M4TTNsvl_Fm2QFo9NiDF-73" value="REST&lt;br&gt;TEXTJSON" style="text;html=1;align=center;verticalAlign=middle;whiteSpace=wrap;rounded=0;" vertex="1" parent="1">
          <mxGeometry x="1140" y="510" width="60" height="30" as="geometry" />
        </mxCell>
        <mxCell id="M4TTNsvl_Fm2QFo9NiDF-75" value="gRPC" style="text;html=1;align=center;verticalAlign=middle;whiteSpace=wrap;rounded=0;" vertex="1" parent="1">
          <mxGeometry x="1125" y="340" width="60" height="30" as="geometry" />
        </mxCell>
        <mxCell id="M4TTNsvl_Fm2QFo9NiDF-77" value="&lt;b&gt;Cloud Proxy&lt;/b&gt;" style="text;html=1;align=center;verticalAlign=middle;whiteSpace=wrap;rounded=0;rotation=270;" vertex="1" parent="1">
          <mxGeometry x="570" y="415" width="110" height="30" as="geometry" />
        </mxCell>
        <mxCell id="M4TTNsvl_Fm2QFo9NiDF-78" value="BLPOP&lt;br&gt;Protobuf" style="text;html=1;align=center;verticalAlign=middle;whiteSpace=wrap;rounded=0;rotation=270;" vertex="1" parent="1">
          <mxGeometry x="800" y="370" width="60" height="30" as="geometry" />
        </mxCell>
        <mxCell id="M4TTNsvl_Fm2QFo9NiDF-81" value="RPUSH&lt;br&gt;Protobuf" style="text;html=1;align=center;verticalAlign=middle;whiteSpace=wrap;rounded=0;rotation=270;" vertex="1" parent="1">
          <mxGeometry x="800" y="470" width="60" height="30" as="geometry" />
        </mxCell>
        <mxCell id="M4TTNsvl_Fm2QFo9NiDF-82" value="request/{cid}/{eid}" style="text;html=1;align=center;verticalAlign=middle;whiteSpace=wrap;rounded=0;" vertex="1" parent="1">
          <mxGeometry x="900" y="310" width="60" height="30" as="geometry" />
        </mxCell>
        <mxCell id="M4TTNsvl_Fm2QFo9NiDF-83" value="reply/{uuid}" style="text;html=1;align=center;verticalAlign=middle;whiteSpace=wrap;rounded=0;" vertex="1" parent="1">
          <mxGeometry x="900.01" y="525" width="60" height="30" as="geometry" />
        </mxCell>
      </root>
    </mxGraphModel>
  </diagram>
  <diagram id="nWx_S4x8JqQKONMcIXwJ" name="Page-2">
    <mxGraphModel dx="1371" dy="646" grid="0" gridSize="10" guides="1" tooltips="1" connect="1" arrows="1" fold="1" page="1" pageScale="1" pageWidth="1700" pageHeight="1100" math="0" shadow="0">
      <root>
        <mxCell id="0" />
        <mxCell id="1" parent="0" />
        <mxCell id="D5yteAB8TSpdcXTGV6ve-83" value="" style="rounded=0;whiteSpace=wrap;html=1;" vertex="1" parent="1">
          <mxGeometry x="979" y="326" width="46" height="217" as="geometry" />
        </mxCell>
        <mxCell id="D5yteAB8TSpdcXTGV6ve-81" value="" style="rounded=0;whiteSpace=wrap;html=1;" vertex="1" parent="1">
          <mxGeometry x="259" y="428" width="41" height="240" as="geometry" />
        </mxCell>
        <mxCell id="D5yteAB8TSpdcXTGV6ve-8" value="Command Server" style="rounded=1;whiteSpace=wrap;html=1;fillColor=#fad7ac;strokeColor=#b46504;" vertex="1" parent="1">
          <mxGeometry x="400" y="160" width="120" height="30" as="geometry" />
        </mxCell>
        <mxCell id="D5yteAB8TSpdcXTGV6ve-9" value="" style="endArrow=none;dashed=1;html=1;rounded=1;entryX=0.5;entryY=1;entryDx=0;entryDy=0;fillColor=#fa6800;strokeColor=#C73500;" edge="1" parent="1">
          <mxGeometry width="50" height="50" relative="1" as="geometry">
            <mxPoint x="460" y="720" as="sourcePoint" />
            <mxPoint x="459.5" y="190" as="targetPoint" />
          </mxGeometry>
        </mxCell>
        <mxCell id="D5yteAB8TSpdcXTGV6ve-10" value="REDIS" style="rounded=1;whiteSpace=wrap;html=1;fillColor=#fad7ac;strokeColor=#b46504;" vertex="1" parent="1">
          <mxGeometry x="560" y="160" width="120" height="30" as="geometry" />
        </mxCell>
        <mxCell id="D5yteAB8TSpdcXTGV6ve-11" value="End User" style="rounded=1;whiteSpace=wrap;html=1;fillColor=#fad7ac;strokeColor=#b46504;" vertex="1" parent="1">
          <mxGeometry x="80" y="160" width="120" height="30" as="geometry" />
        </mxCell>
        <mxCell id="D5yteAB8TSpdcXTGV6ve-12" value="" style="endArrow=none;dashed=1;html=1;rounded=1;entryX=0.5;entryY=1;entryDx=0;entryDy=0;fillColor=#fa6800;strokeColor=#C73500;" edge="1" parent="1">
          <mxGeometry width="50" height="50" relative="1" as="geometry">
            <mxPoint x="140" y="720" as="sourcePoint" />
            <mxPoint x="139.5" y="190" as="targetPoint" />
          </mxGeometry>
        </mxCell>
        <mxCell id="D5yteAB8TSpdcXTGV6ve-13" value="Plugin" style="rounded=1;whiteSpace=wrap;html=1;fillColor=#fad7ac;strokeColor=#b46504;" vertex="1" parent="1">
          <mxGeometry x="240" y="160" width="120" height="30" as="geometry" />
        </mxCell>
        <mxCell id="D5yteAB8TSpdcXTGV6ve-14" value="" style="endArrow=none;dashed=1;html=1;rounded=1;entryX=0.5;entryY=1;entryDx=0;entryDy=0;fillColor=#fa6800;strokeColor=#C73500;" edge="1" parent="1">
          <mxGeometry width="50" height="50" relative="1" as="geometry">
            <mxPoint x="300" y="720" as="sourcePoint" />
            <mxPoint x="299.5" y="190" as="targetPoint" />
          </mxGeometry>
        </mxCell>
        <mxCell id="D5yteAB8TSpdcXTGV6ve-15" value="" style="endArrow=none;dashed=1;html=1;rounded=1;entryX=0.5;entryY=1;entryDx=0;entryDy=0;fillColor=#fa6800;strokeColor=#C73500;" edge="1" parent="1" source="D5yteAB8TSpdcXTGV6ve-40">
          <mxGeometry width="50" height="50" relative="1" as="geometry">
            <mxPoint x="620" y="560" as="sourcePoint" />
            <mxPoint x="619.5" y="190" as="targetPoint" />
          </mxGeometry>
        </mxCell>
        <mxCell id="D5yteAB8TSpdcXTGV6ve-18" value="Command Proxy" style="rounded=1;whiteSpace=wrap;html=1;fillColor=#fad7ac;strokeColor=#b46504;" vertex="1" parent="1">
          <mxGeometry x="720" y="160" width="120" height="30" as="geometry" />
        </mxCell>
        <mxCell id="D5yteAB8TSpdcXTGV6ve-19" value="" style="endArrow=none;dashed=1;html=1;rounded=1;entryX=0.5;entryY=1;entryDx=0;entryDy=0;fillColor=#fa6800;strokeColor=#C73500;" edge="1" parent="1">
          <mxGeometry width="50" height="50" relative="1" as="geometry">
            <mxPoint x="780" y="720" as="sourcePoint" />
            <mxPoint x="779.5" y="190" as="targetPoint" />
          </mxGeometry>
        </mxCell>
        <mxCell id="D5yteAB8TSpdcXTGV6ve-20" value="Command Agent" style="rounded=1;whiteSpace=wrap;html=1;fillColor=#b0e3e6;strokeColor=#0e8088;" vertex="1" parent="1">
          <mxGeometry x="920" y="160" width="120" height="30" as="geometry" />
        </mxCell>
        <mxCell id="D5yteAB8TSpdcXTGV6ve-21" value="" style="endArrow=none;dashed=1;html=1;rounded=1;entryX=0.5;entryY=1;entryDx=0;entryDy=0;fillColor=#0050ef;strokeColor=#001DBC;" edge="1" parent="1">
          <mxGeometry width="50" height="50" relative="1" as="geometry">
            <mxPoint x="980" y="720" as="sourcePoint" />
            <mxPoint x="979.5" y="190" as="targetPoint" />
          </mxGeometry>
        </mxCell>
        <mxCell id="D5yteAB8TSpdcXTGV6ve-22" value="Application" style="rounded=1;whiteSpace=wrap;html=1;fillColor=#b0e3e6;strokeColor=#0e8088;" vertex="1" parent="1">
          <mxGeometry x="1080" y="160" width="120" height="30" as="geometry" />
        </mxCell>
        <mxCell id="D5yteAB8TSpdcXTGV6ve-23" value="" style="endArrow=none;dashed=1;html=1;rounded=1;entryX=0.5;entryY=1;entryDx=0;entryDy=0;fillColor=#0050ef;strokeColor=#001DBC;" edge="1" parent="1">
          <mxGeometry width="50" height="50" relative="1" as="geometry">
            <mxPoint x="1140" y="720" as="sourcePoint" />
            <mxPoint x="1139.5" y="190" as="targetPoint" />
          </mxGeometry>
        </mxCell>
        <mxCell id="D5yteAB8TSpdcXTGV6ve-24" value="CNDP Cloud" style="rounded=1;whiteSpace=wrap;html=1;fillColor=#dae8fc;strokeColor=#6c8ebf;" vertex="1" parent="1">
          <mxGeometry x="80" y="80" width="760" height="40" as="geometry" />
        </mxCell>
        <mxCell id="D5yteAB8TSpdcXTGV6ve-25" value="CNDP Edge" style="rounded=1;whiteSpace=wrap;html=1;fillColor=#dae8fc;strokeColor=#6c8ebf;" vertex="1" parent="1">
          <mxGeometry x="920" y="80" width="280" height="40" as="geometry" />
        </mxCell>
        <mxCell id="D5yteAB8TSpdcXTGV6ve-26" value="" style="rounded=1;whiteSpace=wrap;html=1;fillColor=#fff2cc;strokeColor=#d6b656;" vertex="1" parent="1">
          <mxGeometry x="280" y="220" width="40" height="420" as="geometry" />
        </mxCell>
        <mxCell id="D5yteAB8TSpdcXTGV6ve-27" value="Exec req" style="text;html=1;align=center;verticalAlign=middle;whiteSpace=wrap;rounded=1;" vertex="1" parent="1">
          <mxGeometry x="145" y="226" width="60" height="30" as="geometry" />
        </mxCell>
        <mxCell id="D5yteAB8TSpdcXTGV6ve-28" style="edgeStyle=orthogonalEdgeStyle;rounded=1;orthogonalLoop=1;jettySize=auto;html=1;entryX=-0.05;entryY=0.048;entryDx=0;entryDy=0;entryPerimeter=0;" edge="1" parent="1" source="D5yteAB8TSpdcXTGV6ve-27" target="D5yteAB8TSpdcXTGV6ve-26">
          <mxGeometry relative="1" as="geometry" />
        </mxCell>
        <mxCell id="D5yteAB8TSpdcXTGV6ve-36" style="edgeStyle=orthogonalEdgeStyle;rounded=1;orthogonalLoop=1;jettySize=auto;html=1;entryX=0;entryY=0.5;entryDx=0;entryDy=0;" edge="1" parent="1" source="D5yteAB8TSpdcXTGV6ve-29" target="D5yteAB8TSpdcXTGV6ve-35">
          <mxGeometry relative="1" as="geometry" />
        </mxCell>
        <mxCell id="D5yteAB8TSpdcXTGV6ve-29" value="" style="rounded=1;whiteSpace=wrap;html=1;fillColor=#fff2cc;strokeColor=#d6b656;" vertex="1" parent="1">
          <mxGeometry x="440" y="240" width="40" height="40" as="geometry" />
        </mxCell>
        <mxCell id="D5yteAB8TSpdcXTGV6ve-31" value="" style="endArrow=classic;html=1;rounded=1;entryX=0;entryY=0;entryDx=0;entryDy=0;" edge="1" parent="1" target="D5yteAB8TSpdcXTGV6ve-29">
          <mxGeometry width="50" height="50" relative="1" as="geometry">
            <mxPoint x="321" y="240" as="sourcePoint" />
            <mxPoint x="710" y="290" as="targetPoint" />
          </mxGeometry>
        </mxCell>
        <mxCell id="D5yteAB8TSpdcXTGV6ve-32" value="req [REST]" style="text;html=1;align=center;verticalAlign=middle;whiteSpace=wrap;rounded=1;" vertex="1" parent="1">
          <mxGeometry x="350" y="210" width="60" height="30" as="geometry" />
        </mxCell>
        <mxCell id="D5yteAB8TSpdcXTGV6ve-33" value="" style="endArrow=classic;html=1;rounded=1;entryX=1.009;entryY=0.145;entryDx=0;entryDy=0;entryPerimeter=0;exitX=0;exitY=1;exitDx=0;exitDy=0;" edge="1" parent="1" source="D5yteAB8TSpdcXTGV6ve-29" target="D5yteAB8TSpdcXTGV6ve-26">
          <mxGeometry width="50" height="50" relative="1" as="geometry">
            <mxPoint x="660" y="340" as="sourcePoint" />
            <mxPoint x="710" y="290" as="targetPoint" />
          </mxGeometry>
        </mxCell>
        <mxCell id="D5yteAB8TSpdcXTGV6ve-34" value="res with [uuid]" style="text;html=1;align=center;verticalAlign=middle;whiteSpace=wrap;rounded=1;" vertex="1" parent="1">
          <mxGeometry x="360" y="280" width="60" height="30" as="geometry" />
        </mxCell>
        <mxCell id="D5yteAB8TSpdcXTGV6ve-35" value="" style="rounded=1;whiteSpace=wrap;html=1;fillColor=#fff2cc;strokeColor=#d6b656;" vertex="1" parent="1">
          <mxGeometry x="600" y="250" width="40" height="20" as="geometry" />
        </mxCell>
        <mxCell id="D5yteAB8TSpdcXTGV6ve-37" value="Dump the req" style="text;html=1;align=center;verticalAlign=middle;whiteSpace=wrap;rounded=1;" vertex="1" parent="1">
          <mxGeometry x="500" y="230" width="90" height="30" as="geometry" />
        </mxCell>
        <mxCell id="D5yteAB8TSpdcXTGV6ve-38" value="RPUSH" style="text;html=1;align=center;verticalAlign=middle;whiteSpace=wrap;rounded=1;" vertex="1" parent="1">
          <mxGeometry x="510" y="260" width="60" height="30" as="geometry" />
        </mxCell>
        <mxCell id="D5yteAB8TSpdcXTGV6ve-39" value="" style="rounded=1;whiteSpace=wrap;html=1;fillColor=#fff2cc;strokeColor=#d6b656;" vertex="1" parent="1">
          <mxGeometry x="760" y="240" width="40" height="130" as="geometry" />
        </mxCell>
        <mxCell id="D5yteAB8TSpdcXTGV6ve-41" value="" style="endArrow=none;dashed=1;html=1;rounded=1;entryX=0.5;entryY=1;entryDx=0;entryDy=0;fillColor=#fa6800;strokeColor=#C73500;" edge="1" parent="1" target="D5yteAB8TSpdcXTGV6ve-40">
          <mxGeometry width="50" height="50" relative="1" as="geometry">
            <mxPoint x="620" y="720" as="sourcePoint" />
            <mxPoint x="619.5" y="190" as="targetPoint" />
          </mxGeometry>
        </mxCell>
        <mxCell id="D5yteAB8TSpdcXTGV6ve-40" value="" style="rounded=1;whiteSpace=wrap;html=1;fillColor=#fff2cc;strokeColor=#d6b656;" vertex="1" parent="1">
          <mxGeometry x="600" y="310" width="40" height="60" as="geometry" />
        </mxCell>
        <mxCell id="D5yteAB8TSpdcXTGV6ve-44" value="" style="endArrow=classic;html=1;rounded=1;exitX=1.05;exitY=0.15;exitDx=0;exitDy=0;exitPerimeter=0;entryX=-0.002;entryY=0.858;entryDx=0;entryDy=0;entryPerimeter=0;" edge="1" parent="1" target="D5yteAB8TSpdcXTGV6ve-39">
          <mxGeometry width="50" height="50" relative="1" as="geometry">
            <mxPoint x="640" y="352.04" as="sourcePoint" />
            <mxPoint x="753.9999999999998" y="350.00000000000006" as="targetPoint" />
          </mxGeometry>
        </mxCell>
        <mxCell id="D5yteAB8TSpdcXTGV6ve-45" value="" style="endArrow=classic;html=1;rounded=1;exitX=0.04;exitY=0.621;exitDx=0;exitDy=0;exitPerimeter=0;entryX=-0.1;entryY=0.592;entryDx=0;entryDy=0;entryPerimeter=0;" edge="1" parent="1" source="D5yteAB8TSpdcXTGV6ve-39">
          <mxGeometry width="50" height="50" relative="1" as="geometry">
            <mxPoint x="753.9999999999998" y="320.00000000000006" as="sourcePoint" />
            <mxPoint x="640" y="322.04" as="targetPoint" />
          </mxGeometry>
        </mxCell>
        <mxCell id="D5yteAB8TSpdcXTGV6ve-47" value="res with a req" style="text;html=1;align=center;verticalAlign=middle;whiteSpace=wrap;rounded=1;" vertex="1" parent="1">
          <mxGeometry x="650" y="350" width="90" height="30" as="geometry" />
        </mxCell>
        <mxCell id="D5yteAB8TSpdcXTGV6ve-48" value="" style="shape=partialRectangle;whiteSpace=wrap;html=1;left=0;right=0;fillColor=#f5f5f5;direction=south;opacity=40;strokeColor=#666666;fontColor=#333333;rounded=1;" vertex="1" parent="1">
          <mxGeometry x="870" y="40" width="10" height="680" as="geometry" />
        </mxCell>
        <mxCell id="D5yteAB8TSpdcXTGV6ve-46" value="GET req with cid and eid" style="text;html=1;align=center;verticalAlign=middle;whiteSpace=wrap;rounded=1;" vertex="1" parent="1">
          <mxGeometry x="830" y="220" width="90" height="30" as="geometry" />
        </mxCell>
        <mxCell id="D5yteAB8TSpdcXTGV6ve-50" value="GET req with cid and eid" style="text;html=1;align=center;verticalAlign=middle;whiteSpace=wrap;rounded=1;" vertex="1" parent="1">
          <mxGeometry x="650" y="290" width="90" height="30" as="geometry" />
        </mxCell>
        <mxCell id="D5yteAB8TSpdcXTGV6ve-49" value="" style="rounded=1;whiteSpace=wrap;html=1;fillColor=#b1ddf0;strokeColor=#10739e;" vertex="1" parent="1">
          <mxGeometry x="960" y="240" width="40" height="280" as="geometry" />
        </mxCell>
        <mxCell id="D5yteAB8TSpdcXTGV6ve-51" value="" style="endArrow=classic;html=1;rounded=1;exitX=-0.002;exitY=0.05;exitDx=0;exitDy=0;exitPerimeter=0;entryX=0.915;entryY=0.083;entryDx=0;entryDy=0;entryPerimeter=0;" edge="1" parent="1" source="D5yteAB8TSpdcXTGV6ve-49" target="D5yteAB8TSpdcXTGV6ve-39">
          <mxGeometry width="50" height="50" relative="1" as="geometry">
            <mxPoint x="780" y="310" as="sourcePoint" />
            <mxPoint x="830" y="260" as="targetPoint" />
          </mxGeometry>
        </mxCell>
        <mxCell id="D5yteAB8TSpdcXTGV6ve-52" style="edgeStyle=orthogonalEdgeStyle;rounded=1;orthogonalLoop=1;jettySize=auto;html=1;exitX=1;exitY=1;exitDx=0;exitDy=0;entryX=0.081;entryY=0.467;entryDx=0;entryDy=0;entryPerimeter=0;" edge="1" parent="1" source="D5yteAB8TSpdcXTGV6ve-39" target="D5yteAB8TSpdcXTGV6ve-49">
          <mxGeometry relative="1" as="geometry">
            <Array as="points">
              <mxPoint x="880" y="371" />
            </Array>
          </mxGeometry>
        </mxCell>
        <mxCell id="D5yteAB8TSpdcXTGV6ve-53" value="res with a req" style="text;html=1;align=center;verticalAlign=middle;whiteSpace=wrap;rounded=1;" vertex="1" parent="1">
          <mxGeometry x="830" y="370" width="90" height="30" as="geometry" />
        </mxCell>
        <mxCell id="D5yteAB8TSpdcXTGV6ve-54" value="" style="rounded=1;whiteSpace=wrap;html=1;fillColor=#b1ddf0;strokeColor=#10739e;" vertex="1" parent="1">
          <mxGeometry x="1120" y="400" width="40" height="80" as="geometry" />
        </mxCell>
        <mxCell id="D5yteAB8TSpdcXTGV6ve-55" style="edgeStyle=orthogonalEdgeStyle;rounded=1;orthogonalLoop=1;jettySize=auto;html=1;exitX=0;exitY=1;exitDx=0;exitDy=0;" edge="1" parent="1" source="D5yteAB8TSpdcXTGV6ve-54" target="D5yteAB8TSpdcXTGV6ve-49">
          <mxGeometry relative="1" as="geometry">
            <Array as="points">
              <mxPoint x="1030" y="480" />
              <mxPoint x="1030" y="480" />
            </Array>
          </mxGeometry>
        </mxCell>
        <mxCell id="D5yteAB8TSpdcXTGV6ve-56" value="res with data" style="text;html=1;align=center;verticalAlign=middle;whiteSpace=wrap;rounded=1;" vertex="1" parent="1">
          <mxGeometry x="1030" y="480" width="80" height="30" as="geometry" />
        </mxCell>
        <mxCell id="D5yteAB8TSpdcXTGV6ve-57" value="" style="endArrow=classic;html=1;rounded=1;entryX=0;entryY=0;entryDx=0;entryDy=0;" edge="1" parent="1" target="D5yteAB8TSpdcXTGV6ve-54">
          <mxGeometry width="50" height="50" relative="1" as="geometry">
            <mxPoint x="1000" y="400" as="sourcePoint" />
            <mxPoint x="830" y="370" as="targetPoint" />
          </mxGeometry>
        </mxCell>
        <mxCell id="D5yteAB8TSpdcXTGV6ve-58" value="execute command" style="text;html=1;align=center;verticalAlign=middle;whiteSpace=wrap;rounded=1;" vertex="1" parent="1">
          <mxGeometry x="1018" y="370" width="120" height="30" as="geometry" />
        </mxCell>
        <mxCell id="D5yteAB8TSpdcXTGV6ve-59" value="" style="rounded=1;whiteSpace=wrap;html=1;fillColor=#fff2cc;strokeColor=#d6b656;" vertex="1" parent="1">
          <mxGeometry x="760" y="460" width="40" height="60" as="geometry" />
        </mxCell>
        <mxCell id="D5yteAB8TSpdcXTGV6ve-60" value="" style="endArrow=classic;html=1;rounded=1;exitX=0.019;exitY=0.928;exitDx=0;exitDy=0;exitPerimeter=0;" edge="1" parent="1" source="D5yteAB8TSpdcXTGV6ve-49">
          <mxGeometry width="50" height="50" relative="1" as="geometry">
            <mxPoint x="680" y="550" as="sourcePoint" />
            <mxPoint x="800" y="500" as="targetPoint" />
          </mxGeometry>
        </mxCell>
        <mxCell id="D5yteAB8TSpdcXTGV6ve-61" value="send reply" style="text;html=1;align=center;verticalAlign=middle;whiteSpace=wrap;rounded=1;" vertex="1" parent="1">
          <mxGeometry x="850" y="475" width="60" height="30" as="geometry" />
        </mxCell>
        <mxCell id="D5yteAB8TSpdcXTGV6ve-62" value="" style="rounded=1;whiteSpace=wrap;html=1;fillColor=#fff2cc;strokeColor=#d6b656;" vertex="1" parent="1">
          <mxGeometry x="600" y="475" width="40" height="45" as="geometry" />
        </mxCell>
        <mxCell id="D5yteAB8TSpdcXTGV6ve-64" value="" style="endArrow=classic;html=1;rounded=1;exitX=0;exitY=0.75;exitDx=0;exitDy=0;entryX=1;entryY=0.75;entryDx=0;entryDy=0;" edge="1" parent="1" source="D5yteAB8TSpdcXTGV6ve-59" target="D5yteAB8TSpdcXTGV6ve-62">
          <mxGeometry width="50" height="50" relative="1" as="geometry">
            <mxPoint x="680" y="500" as="sourcePoint" />
            <mxPoint x="730" y="450" as="targetPoint" />
          </mxGeometry>
        </mxCell>
        <mxCell id="D5yteAB8TSpdcXTGV6ve-65" value="dump reply" style="text;html=1;align=center;verticalAlign=middle;whiteSpace=wrap;rounded=1;" vertex="1" parent="1">
          <mxGeometry x="660" y="480" width="80" height="30" as="geometry" />
        </mxCell>
        <mxCell id="D5yteAB8TSpdcXTGV6ve-66" value="" style="rounded=1;whiteSpace=wrap;html=1;fillColor=#fff2cc;strokeColor=#d6b656;" vertex="1" parent="1">
          <mxGeometry x="600" y="550" width="40" height="60" as="geometry" />
        </mxCell>
        <mxCell id="D5yteAB8TSpdcXTGV6ve-67" value="" style="rounded=1;whiteSpace=wrap;html=1;fillColor=#fff2cc;strokeColor=#d6b656;" vertex="1" parent="1">
          <mxGeometry x="440" y="530" width="40" height="100" as="geometry" />
        </mxCell>
        <mxCell id="D5yteAB8TSpdcXTGV6ve-69" value="" style="endArrow=classic;html=1;rounded=1;exitX=1.019;exitY=0.324;exitDx=0;exitDy=0;exitPerimeter=0;entryX=-0.002;entryY=0.165;entryDx=0;entryDy=0;entryPerimeter=0;" edge="1" parent="1">
          <mxGeometry width="50" height="50" relative="1" as="geometry">
            <mxPoint x="480.76" y="572.4000000000001" as="sourcePoint" />
            <mxPoint x="599.9200000000001" y="569.9000000000001" as="targetPoint" />
          </mxGeometry>
        </mxCell>
        <mxCell id="D5yteAB8TSpdcXTGV6ve-70" value="get reply with uuid" style="text;html=1;align=center;verticalAlign=middle;whiteSpace=wrap;rounded=1;" vertex="1" parent="1">
          <mxGeometry x="480" y="550" width="110" height="30" as="geometry" />
        </mxCell>
        <mxCell id="D5yteAB8TSpdcXTGV6ve-71" value="" style="endArrow=classic;html=1;rounded=1;exitX=0;exitY=0.75;exitDx=0;exitDy=0;entryX=1.06;entryY=0.674;entryDx=0;entryDy=0;entryPerimeter=0;" edge="1" parent="1" source="D5yteAB8TSpdcXTGV6ve-66" target="D5yteAB8TSpdcXTGV6ve-67">
          <mxGeometry width="50" height="50" relative="1" as="geometry">
            <mxPoint x="690" y="590" as="sourcePoint" />
            <mxPoint x="740" y="540" as="targetPoint" />
          </mxGeometry>
        </mxCell>
        <mxCell id="D5yteAB8TSpdcXTGV6ve-72" value="res with reply" style="text;html=1;align=center;verticalAlign=middle;whiteSpace=wrap;rounded=1;" vertex="1" parent="1">
          <mxGeometry x="495" y="590" width="100" height="30" as="geometry" />
        </mxCell>
        <mxCell id="D5yteAB8TSpdcXTGV6ve-73" value="" style="endArrow=classic;html=1;rounded=1;exitX=0;exitY=1;exitDx=0;exitDy=0;" edge="1" parent="1" source="D5yteAB8TSpdcXTGV6ve-26">
          <mxGeometry width="50" height="50" relative="1" as="geometry">
            <mxPoint x="550" y="620" as="sourcePoint" />
            <mxPoint x="140" y="640" as="targetPoint" />
          </mxGeometry>
        </mxCell>
        <mxCell id="D5yteAB8TSpdcXTGV6ve-74" value="Display output" style="text;html=1;align=center;verticalAlign=middle;whiteSpace=wrap;rounded=1;" vertex="1" parent="1">
          <mxGeometry x="170" y="610" width="90" height="30" as="geometry" />
        </mxCell>
        <mxCell id="D5yteAB8TSpdcXTGV6ve-75" value="" style="endArrow=classic;html=1;rounded=1;exitX=0.998;exitY=0.768;exitDx=0;exitDy=0;exitPerimeter=0;entryX=-0.085;entryY=0.108;entryDx=0;entryDy=0;entryPerimeter=0;" edge="1" parent="1" source="D5yteAB8TSpdcXTGV6ve-26" target="D5yteAB8TSpdcXTGV6ve-67">
          <mxGeometry width="50" height="50" relative="1" as="geometry">
            <mxPoint x="550" y="560" as="sourcePoint" />
            <mxPoint x="600" y="510" as="targetPoint" />
          </mxGeometry>
        </mxCell>
        <mxCell id="D5yteAB8TSpdcXTGV6ve-76" value="get reply with uuid" style="text;html=1;align=center;verticalAlign=middle;whiteSpace=wrap;rounded=1;" vertex="1" parent="1">
          <mxGeometry x="350" y="510" width="60" height="30" as="geometry" />
        </mxCell>
        <mxCell id="D5yteAB8TSpdcXTGV6ve-77" value="" style="endArrow=classic;html=1;rounded=1;exitX=-0.085;exitY=0.858;exitDx=0;exitDy=0;exitPerimeter=0;entryX=1.06;entryY=0.944;entryDx=0;entryDy=0;entryPerimeter=0;" edge="1" parent="1" source="D5yteAB8TSpdcXTGV6ve-67" target="D5yteAB8TSpdcXTGV6ve-26">
          <mxGeometry width="50" height="50" relative="1" as="geometry">
            <mxPoint x="550" y="560" as="sourcePoint" />
            <mxPoint x="600" y="510" as="targetPoint" />
          </mxGeometry>
        </mxCell>
        <mxCell id="D5yteAB8TSpdcXTGV6ve-78" value="res with reply" style="text;html=1;align=center;verticalAlign=middle;whiteSpace=wrap;rounded=1;" vertex="1" parent="1">
          <mxGeometry x="330" y="610" width="90" height="30" as="geometry" />
        </mxCell>
        <mxCell id="D5yteAB8TSpdcXTGV6ve-82" value="Polling" style="text;html=1;align=center;verticalAlign=middle;whiteSpace=wrap;rounded=0;" vertex="1" parent="1">
          <mxGeometry x="205" y="485" width="60" height="30" as="geometry" />
        </mxCell>
        <mxCell id="D5yteAB8TSpdcXTGV6ve-84" value="Pooling" style="text;html=1;align=center;verticalAlign=middle;whiteSpace=wrap;rounded=0;" vertex="1" parent="1">
          <mxGeometry x="998" y="547" width="60" height="30" as="geometry" />
        </mxCell>
      </root>
    </mxGraphModel>
  </diagram>
</mxfile>
